<svg xmlns="http://www.w3.org/2000/svg" viewBox="0 0 32 32" fill="none">
  <rect width="32" height="32" rx="4" fill="transparent"/>
  <path d="M16 4C16 4 10 8 10 14C10 17 11.5 19.5 13 21L12 28H15L16 23L17 28H20L19 21C20.5 19.5 22 17 22 14C22 8 16 4 16 4Z" fill="white" stroke="white" stroke-width="0.5" stroke-linejoin="round"/>
  <path d="M16 4C16 4 14 9 14 14C14 16.5 15 18 16 19C17 18 18 16.5 18 14C18 9 16 4 16 4Z" fill="#1a1a1a"/>
  <line x1="16" y1="19" x2="16" y2="23" stroke="#1a1a1a" stroke-width="1"/>
</svg>
